<?xml version="1.0" encoding="UTF-8"?><svg id="Layer_0_Image" data-name="Layer 0 Image" xmlns="http://www.w3.org/2000/svg" viewBox="0 0 800 600" x="0px" y="0px" width="800px" height="600px" version="1.1" xmlns:xlink="http://www.w3.org/1999/xlink"><title>1</title><path d="M486.415,350.675l3.581.578c-.5.377-.779.764-1.094.8q-27.852,2.924-55.71,5.8c-4.352.452-8.7.952-13.051,1.4-.467.048-1.163.052-1.4-.226-3.636-4.183-8.735-7.9-10.387-12.779-1.746-5.152,1.732-10.69,7.456-12.463,9.908-3.07,19.938-6.926,30.125-7.7,31.484-2.385,63.081-3.833,94.313,3.125,4.191.933,11.613,10.811,10.789,14.948-.9,4.519-3.683,6.71-8.829,6.634C523.547,350.507,504.882,350.675,486.415,350.675Zm23.476-19.723c-22.767-.581-51-1.3-78.916,4.191Z"/><path d="M571.021,122.023c23.319,2.98,46.644,5.909,69.944,9.019,2.32.31,4.494,1.717,6.735,2.614-3.237,4.329,4.52,8.827.439,12.136-2.256,1.829-6.9,1-10.457.883-10.871-.343-21.74-1.39-32.6-1.3-18.167.155-36.465-.213-54.455,1.848-19.132,2.191-37.989,6.856-56.92,10.672-3.6.727-5.035.461-5.9-3.654-2.376-11.259-.619-17.79,10.573-21.322,13.746-4.337,28.228-6.757,42.571-8.644,9.794-1.289,19.894-.247,29.857-.247Z"/><path d="M403.286,61.59c-.006,4.876-2.231,6.063-7.99,5.887-15.766-.48-31.571.294-47.36.612-.944.019-1.875.532-2.821.566-9.034.326-18.151-.069-27.086,1.028-17.257,2.119-34.413,5.063-51.608,7.684-3.874.591-6.5.1-6.884-4.847-.234-3.045-3.172-6.15-2.768-8.918.787-5.391,4.667-9.074,10.259-9.967,19.854-3.168,39.649-7.639,59.632-8.819,21.217-1.252,42.69-.158,63.919,1.557C402.289,47.319,402.253,50.239,403.286,61.59Z"/><path d="M390.173,534.771l3.9.7c-7.025.369-14.8.571-22.528,1.249-6.171.54-7.233-5.186-8.236-8.218-1.144-3.453-2.1-4.755-5.383-5.123-.9-.1-1.681-1.238-2.517-1.9.988-.866,1.879-2.323,2.979-2.5,10.048-1.646,20.1-4.007,30.212-4.389,33.849-1.279,67.726-1.824,101.592-2.668,1.025-.026,2.045-.245,3.066-.374l-.065-2.5c-12.6,0-25.209-.191-37.808.043-21.466.4-42.941.746-64.382,1.764-9.1.432-18.113,2.642-27.2,3.726-2.1.251-4.361-.8-6.548-1.257,1.868-1.435,3.657-4,5.616-4.135,24.155-1.694,48.318-3.619,72.513-4.279,19.1-.521,38.258.454,57.376,1.143,5.45.2,10.853,1.715,16.277,2.627l.045,1.849-10.344.629-.156,1.166c2.225.352,4.912.041,6.573,1.2,2.97,2.075,5.321,5.035,7.931,7.625-2.269,1.537-4.437,4.146-6.829,4.372-4.147.392-8.433-.7-12.663-1.145a6.8,6.8,0,0,0-1.891.056c-4.634.842-9.536,3.155-13.842,2.331-17.266-3.3-33.512,3.765-50.408,3.994-12.433.169-24.844,1.965-37.265,3.035Q390.177,534.28,390.173,534.771Zm28.5-7.837.11.706c5.26,0,10.52.05,15.778-.062.686-.014,1.353-.863,2.03-1.325-.6-.61-1.284-1.8-1.8-1.738C429.4,525.205,424.04,526.1,418.672,526.934Z"/><path d="M330.206,315.579c-3.909,2.448-3.855,2.386-1.112,4.766a2.537,2.537,0,0,1,.173,2.381,3.274,3.274,0,0,1-2.143,1.614q-7.056.579-14.141.8c-17.068.557-34.141.964-51.2,1.611-9.634.366-19.254,1.092-30.754,1.765l7.773.832c-.52.394-.774.755-1.049.771-7.026.417-14.055,1.06-21.084,1.069-3.337,0-6.712-1.9-10.006-1.72-4.644.248-9.235,1.586-13.835,2.524-8.5,1.733-13.8-2.374-17.538-9.471-.719-1.366-1.754-2.562-2.524-3.9-.665-1.161-1.16-2.419-1.73-3.634,1.394-.654,2.781-1.863,4.183-1.88,33.854-.425,67.71-.671,101.564-1.1a41.032,41.032,0,0,0,14.3-2.759c-2.882-.249-5.763-.7-8.646-.714q-23.507-.079-47.014.048c-7.737.05-15.473.323-23.207.564-11.347.353-22.691.84-34.04,1.083-1.921.041-3.863-.863-5.8-1.331,1.911-1.454,3.735-4.023,5.747-4.178,11.122-.859,22.293-1.57,33.443-1.513,25.857.133,51.714.637,77.566,1.206,7.739.171,15.466,1.012,23.189,1.66a6.608,6.608,0,0,1,2.985,1.257c-2.283,9.079,4.91,5.328,8.519,6.365C325.877,314.282,327.922,314.9,330.206,315.579Z"/><path d="M184.648,394.193c-3.007,2.031-4.723,3.19-6.439,4.346,2.062,3.056,7.135-3.414,8.834,3.387,1.235,4.945,1.168,7.8-3.67,9.317a154.384,154.384,0,0,1-16.674,4.413c-15.569,3.033-31.3,5.323-46.757,8.812-8.886,2-17.363,5.8-26.047,8.728s-17.411,5.754-26.1,8.668a11.159,11.159,0,0,0-3.814,1.737c-4.048,3.536-7.16,2.968-10.186-1.439-1.143-1.666-3.3-2.65-5.038-3.882-.561-.4-1.429-.443-1.871-.916-1.114-1.19,1.173-12.507,2.79-13.081,16.171-5.731,32.02-13,48.66-16.631,27.223-5.938,54.967-9.491,82.5-14.015C181.5,393.526,182.242,393.826,184.648,394.193ZM107.037,411.98l-.666-1.771L72,419.46q.229.875.458,1.748Z"/><path d="M545.129,48.962l7.461-1.147q.122.473.242.947c-5.577,1.395-11.2,2.645-16.721,4.221-8.062,2.3-16.067,4.8-24.072,7.3a12.532,12.532,0,0,0-3.838,1.9c-2.228,1.7-5.676,5.517-6.181,5.145a24.112,24.112,0,0,1-7.263-8.006c-4.986-9.816.622-20.328,11.934-24.652,31.482-12.033,64.225-13.544,97.209-11.1,9.17.678,18.284,4.792,26.917,8.506,2.808,1.208,4.5,6,5.635,9.495.333,1.023-2.959,3.28-4.693,4.856-.234.213-1.088-.223-1.641-.4a64.215,64.215,0,0,1-7.629-2.578c-3.844-1.818-9.4,4.716-12.274-2.567-.182-.462-4.333-.148-5.936.889-4.949,3.2-6.566,2.672-11.947.663-4.1-1.532-9.114-.784-13.719-.754a24.948,24.948,0,0,0-7.743,1.09c-2.043.692-7.007-2.147-5.468,3.8-1.311.207-3.13,1.074-3.852.518C554.756,41.843,552.656,41.914,545.129,48.962ZM515.3,36.9c1.847,1.2,2.306,1.742,2.625,1.67,30.316-6.838,60.855-10.665,92-7.365,1.685.178,3.549-1.329,7.223-2.818C581.45,24.406,548.671,26.674,515.3,36.9Z"/><path d="M406.327,113.789l-6.218,1.483a15.917,15.917,0,0,0,3.194.789c4.228-.105,5.346,2.763,5.081,6.007-.326,4-2.726,2.058-5.445,2.127-32.145.81-64.27,2.411-96.41,3.477-15.008.5-30.053-.058-45.054.535-8.136.323-5.851-6.5-7.325-10.147-.506-1.251,4.175-6.411,6.949-6.848a180.4,180.4,0,0,1,28.968-2.3c34.678.192,69.355.8,104.028,1.418,4.015.072,8.01,1.207,12.015,1.849Q406.218,112.986,406.327,113.789Z"/><path d="M283.746,430.831l5.067.723.015.935a62.851,62.851,0,0,1-8.191.294c-4.674-.415-10.24,1.418-11.638-6.5-.4-2.236-.394-8.769-6.657-8.2-.435.039-1.84-3.019-1.488-3.386A6.855,6.855,0,0,1,265,412.6c14.762-.776,29.527-1.628,44.3-1.938,15.382-.322,30.776-.072,46.424-1.319a82.007,82.007,0,0,0-8.926-.878c-27.363.2-54.726.529-82.089.712-1.459.009-2.925-.968-4.388-1.487,1.084-1.188,2.047-3.252,3.272-3.421,7.878-1.091,15.825-2.54,23.728-2.423,18.382.27,36.765,1.144,55.124,2.2,12.25.7,24.459,2.128,36.687,3.231q.018,1.141.037,2.284H361l-.049,2.2c7.225.861,14.446,2.34,21.677,2.39,5.911.041,3.924,5.159,6.173,7.4-2.2,2.073-2.582,6.095-7.734,4.515-6.562-2.012-13.584-2.534-20.418-3.632-.861-.138-2.423-.144-2.588.245-4.046,9.515-11.678,2.125-17.456,3.193l7.638-1.176-.033-.923H327.416l7.6,3.443c-6.175.65-10.438.993-14.669,1.57-6.324.862-12.6,2.436-18.944,2.688-5.813.231-11.681-.888-17.524-1.412Q283.813,430.438,283.746,430.831Z"/><path d="M378.8,229.822H333.661l0,1.391q18.87,0,37.741.006c1.453,0,3.343-.48,4.27.241,2.154,1.674,3.843,3.946,5.72,5.976-2.094,1.772-4.058,4.881-6.3,5.1-15.918,1.552-31.936,2.107-47.838,3.78-14.71,1.547-29.318,4.069-43.965,6.2-8.994,1.308-18,2.571-26.954,4.092-3.483.591-5.53.021-6.229-3.855-.523-2.9-2.551-5.71-2.439-8.5.193-4.849,3.632-7.8,8.316-8.587,16.24-2.717,32.436-6.452,48.8-7.52,22.972-1.5,46.077-.987,69.127-1.229,1.689-.018,3.386.817,5.08,1.255Z"/><path d="M586.679,220.64l-4.326.694,4.364,7.414c-2.949,1.016-5.895,2.9-8.849,2.914q-50.75.194-101.5-.147c-8.6-.046-17.2-.967-25.776-.666-2.27.08-5.239-6.33-7.035.344-.969-.84-2.3-1.5-2.84-2.555-1.459-2.845-2.583-5.863-4.076-9.366l5.783-1.425-2.57-2.784c1.227-.5,2.438-1.375,3.684-1.427,10.906-.452,21.838-1.354,32.725-.992,32.251,1.07,64.487,2.606,96.722,4.109,3.841.179,7.647,1.238,11.446,2.005C585.026,218.878,585.5,219.623,586.679,220.64Z"/><path d="M196.1,553.7c17.623,0,35.247.075,52.87-.06,3.746-.028,8.206-.394,7.846,4.385-.179,2.382-4.2,6.063-6.8,6.361-6.56.752-13.306-.312-19.969-.195-3.727.066-7.427,1.122-11.157,1.582-8.465,1.044-16.923,2.3-25.424,2.826-3.239.2-6.685-1.114-9.857-2.243-2.967-1.055-2.814.08-2.7,2.366.025.522-2.3,1.53-3.618,1.686-9.944,1.174-19.915,2.124-29.857,3.319a20.482,20.482,0,0,0-5.246,1.906c-5.182,2.2-10.915,3.648-12.364-3.58-.8-4-7.2-1.774-5.863-8.16,1.073-5.142,2.537-8.185,7.028-9.2,7.53-1.708,15.186-3.523,22.85-3.85,32.978-1.4,65.978-2.282,100.319-3.4-4.395,4.637-4.394,4.7-19.015,5.1-6.5.178-13,.06-19.5.066s-13.027,0-19.54,0ZM152,555.35l.114,1.716,30.9-2.472-.046-.764Z"/><path d="M706.013,260.093c11.848.72,23.733,1.1,35.52,2.383,3.167.344,6.872,2.787,8.815,5.395,1.99,2.671,2.121,6.727,3.066,10.176-3.825.695-7.628,1.815-11.479,2.008-13.484.675-27,.794-40.473,1.6-8.266.492-16.483,1.835-24.718,2.821-3.3.395-7,.05-9.82,1.443-7.471,3.684-10.507.568-13.946-6.024-4.388-8.414-3.76-13.294,5.325-15.242,9.417-2.021,19.128-2.839,28.755-3.649,6.265-.527,12.611-.1,18.921-.1Zm-14.837,6.83q-.057-.567-.115-1.135l-31.612,2.719q.068.72.134,1.441Zm36.51-.943c.023-.13.048-.261.072-.392H701.631l0,.392Z"/><path d="M618.741,413.969c.465,1.11,1.154,3.232,1.364,3.185,8.454-1.872,15.926,2.464,23.882,3.522,2.354.313,4.912-.9,6.316-1.2,1.56,3.357,3.112,6.7,5.3,11.4-8.482-2.4-16.106-4.545-23.716-6.737-.8-.23-1.845-1.281-2.225-1.049-5.45,3.332-11.779,1.4-17.634,2.624-6.521,1.362-13.878-2.076-20.5,2.747-1.17.853-4.36-.955-6.574-1.667-6.413-2.062-11.05,4.009-17.552,3.429-7.274-.648-14.8-2.83-20.527-8.971-.436-.468-1.251-.562-1.838-.916-1.034-.625-2.028-1.316-3.038-1.98,1.112-.717,2.171-1.948,3.346-2.072,9.585-1.007,19.179-2.346,28.793-2.548,14.933-.313,29.884.19,44.828.347Z"/><path d="M541.739,409.941c3.5-1.2,6.057-2.816,8.615-2.825,15.962-.059,31.927.191,47.887.522,1.262.026,2.5,1.44,3.741,2.208-1.162.637-2.32,1.82-3.487,1.83-17.943.145-35.888.147-53.833.119C544.105,411.794,543.548,411.117,541.739,409.941Z"/><path d="M137.9,186.471c10.949-.767,21.308-1.837,31.683-2.036,3.676-.071,7.392,1.979,11.09,3.061-.2-1.894,7.541,2.7,2.546-3.113.73-.421,1.769-1.378,2.137-1.167a16.393,16.393,0,0,1,3.945,3.193c.2.22-.939,2.344-1.339,2.306-7.08-.662-14.445,8.009-21.262-.565-.752.74-1.429,2.016-2.27,2.136-6.853.975-13.727,2.1-20.618,2.287C142.186,192.616,140.473,189.247,137.9,186.471Z"/><path d="M106.587,196.748l6.921-2.5-.061-1.21-8-.644c-.044-.3-.089-.609-.133-.913l22.335-3.919C117.92,195.877,113.674,197.684,106.587,196.748Z"/><path d="M75.62,202.121l13.832-3.039.311,1.508-13.639,3.735Z"/><path d="M95.2,189.849l-14.413,2.07-.3-1.649,14.358-2.757Z"/><path d="M64.6,202.384l-11.054,3.353q-.387-1.38-.775-2.759l11.326-3.247Q64.345,201.057,64.6,202.384Z"/><path d="M126.665,185.137l-15.476,1.907q-.106-.858-.212-1.715l15.416-2.288Z"/><path d="M618.964,414.083l-5.5-3.622c4.672,0,7.8-.146,10.911.076,1.143.082,2.223,1.033,3.332,1.587a19.4,19.4,0,0,1-3.4,1.274c-1.836.333-3.722.388-5.574.565Z"/></svg>